<svg xlink="http://www.w3.org/1999/xlink" viewBox="0 0 5000 5000" xmlns="http://www.w3.org/2000/svg" style="transform: scale(1);"><defs><filter id="goo"><feGaussianBlur in="SourceGraphic" stdDeviation="0" result="blur"></feGaussianBlur><feColorMatrix in="blur" type="matrix" values="1 0 0 0 0 0 1 0 0 0 0 0 1 0 0 0 0 0 19 -9" result="good"></feColorMatrix><feComposite in="SourceGraphic" in2="goo" operator="atop"></feComposite></filter><path d="M352,231C358,271 283,271 273,278C264,286 257,359 218,349C180,335 216,269 214,257C212,243 157,191 184,170C210,148 248,211 261,215C275,220 347,197 352,231z" id="P0"></path><path d="M187,238C190,222 227,231 233,227C239,222 242,184 262,187C278,190 269,227 273,233C278,239 316,242 313,262C310,278 273,269 267,273C261,278 258,316 238,313C222,310 231,273 227,267C222,261 184,258 187,238z" id="P1"></path><path d="M189,216C194,204 230,226 237,223C242,220 245,178 263,181C277,183 267,224 272,229C276,233 317,223 319,241C322,255 280,258 276,264C274,270 296,306 280,313C268,320 252,281 244,279C239,279 211,311 199,298C189,289 221,261 220,254C219,248 180,232 189,216z" id="P2"></path><path d="M284,164C317,178 283,234 284,246C286,257 336,297 309,322C280,344 248,287 237,282C225,277 161,292 158,262C154,232 218,232 228,223C239,215 256,152 284,164z" id="P3"></path><path d="M238,296C226,293 232,269 229,264C225,258 201,253 204,238C207,226 231,232 238,228C243,224 250,201 262,204C274,207 268,231 272,238C276,243 299,250 296,262C293,274 269,268 262,272C257,276 250,299 238,296z" id="P4"></path><path d="M189,206C197,194 233,223 240,221C246,218 255,173 273,179C287,182 270,225 275,232C279,236 325,231 325,250C326,264 280,262 275,268C272,273 291,315 273,321C260,327 248,282 240,279C235,278 201,310 189,294C180,283 219,258 219,250C219,244 178,222 189,206z" id="P5"></path><path d="M262,158C297,164 278,227 282,237C286,248 345,274 325,305C303,333 257,286 246,284C232,282 174,313 164,284C153,256 215,241 222,230C230,219 232,153 262,158z" id="P6"></path><path d="M363,228C369,258 289,263 283,271C278,280 308,355 272,363C242,369 237,289 227,282C219,276 142,301 137,272C131,242 211,237 218,227C224,219 199,142 228,137C258,131 263,211 273,218C281,224 358,199 363,228z" id="P7"></path><path d="M358,215C366,235 290,253 287,262C285,269 340,325 317,342C300,356 260,289 250,289C243,289 207,359 183,342C164,330 216,271 213,262C210,255 133,243 142,215C147,193 219,225 227,219C233,214 221,136 250,136C272,135 265,213 273,219C279,223 349,187 358,215z" id="P8"></path><path d="M267,282C255,288 244,274 238,270C231,266 215,264 214,250C215,236 232,233 239,230C247,226 259,213 269,220C279,226 273,241 273,250C273,259 278,276 267,282z" id="P9"></path><path d="M195,276C188,262 221,248 223,241C225,234 207,204 224,195C238,188 252,221 260,224C267,226 299,210 305,224C312,238 279,252 276,260C274,267 290,299 276,305C262,312 248,279 240,276C233,274 201,290 195,276z" id="P10"></path><path d="M252,286C245,287 243,273 238,270C234,267 220,272 217,263C214,257 226,250 228,244C228,240 220,228 227,222C232,218 243,227 249,227C253,226 261,215 269,220C275,223 269,236 272,241C273,246 287,250 285,259C284,266 269,264 265,268C262,271 261,285 252,286z" id="P11"></path><path d="M231,284C218,276 226,258 226,250C226,242 217,226 229,217C242,209 255,225 261,229C269,234 289,237 289,250C289,263 270,265 263,270C255,275 242,291 231,284z" id="P12"></path><path d="M257,288C247,290 242,274 237,270C232,267 214,270 212,257C210,247 226,242 231,236C234,231 233,213 243,212C253,210 258,226 264,231C269,234 287,233 288,243C290,253 274,258 269,264C266,269 267,287 257,288z" id="P13"></path><path d="M199,188C210,178 240,219 248,218C254,217 275,172 293,182C306,190 277,231 280,238C282,244 332,250 327,270C325,285 277,269 270,275C266,279 275,328 255,330C240,332 240,281 233,277C227,274 183,298 176,279C169,265 217,250 219,242C220,236 183,202 199,188z" id="P14"></path><path d="M357,264C350,305 275,281 264,285C252,289 222,360 187,337C153,311 211,257 213,245C215,231 177,162 210,150C243,137 260,212 272,220C284,229 362,229 357,264z" id="P15"></path><path d="M226,287C217,281 227,262 226,255C224,248 206,236 213,226C219,217 238,227 244,226C250,224 261,206 274,213C283,219 273,238 274,244C276,250 294,261 287,274C281,283 262,273 256,274C250,276 239,294 226,287z" id="P16"></path><path d="M348,269C345,288 268,261 264,265C261,268 288,345 262,349C244,352 245,271 240,268C236,266 171,315 160,292C151,275 229,251 230,246C230,242 164,195 182,178C195,164 242,230 247,230C251,229 275,151 298,163C315,171 266,236 269,241C271,245 352,244 348,269z" id="P17"></path><path d="M200,263C195,243 225,237 232,231C238,225 243,196 263,200C282,205 274,235 276,243C278,254 298,277 286,288C273,299 253,278 243,276C234,273 203,280 200,263z" id="P18"></path><path d="M317,322C299,340 256,272 250,271C244,272 201,340 178,317C160,299 228,256 229,250C228,244 160,201 183,178C201,160 244,228 251,229C257,229 305,163 322,183C340,201 272,244 271,251C271,257 337,305 317,322z" id="P19"></path><path d="M245,290C237,289 238,272 234,267C230,265 213,268 211,257C209,250 226,245 228,240C230,235 222,220 231,215C237,211 247,225 253,226C258,226 270,214 277,221C283,226 272,239 274,246C275,250 290,258 286,267C283,274 267,268 262,271C258,274 255,291 245,290z" id="P20"></path></defs><rect id="RECT" width="5000" height="5000" fill="#EC0650"></rect><g id="group" fill="#FFFFFF" filter="" opacity="0.24"><use x="-77" y="-248" href="#P17"></use><use x="-147" y="50" href="#P13"></use><use x="-174" y="181" href="#P8"></use><use x="-73" y="329" href="#P5"></use><use x="-87" y="621" href="#P5"></use><use x="-136" y="770" href="#P11"></use><use x="-81" y="1005" href="#P19"></use><use x="-155" y="1147" href="#P4"></use><use x="-99" y="1416" href="#P3"></use><use x="-110" y="1656" href="#P8"></use><use x="-167" y="1670" href="#P16"></use><use x="-136" y="1945" href="#P9"></use><use x="-98" y="2156" href="#P7"></use><use x="-121" y="2366" href="#P13"></use><use x="-136" y="2560" href="#P6"></use><use x="-142" y="2642" href="#P3"></use><use x="-112" y="2938" href="#P2"></use><use x="-88" y="3034" href="#P1"></use><use x="-86" y="3275" href="#P4"></use><use x="-91" y="3437" href="#P10"></use><use x="-116" y="3616" href="#P18"></use><use x="-163" y="3842" href="#P2"></use><use x="-93" y="4161" href="#P16"></use><use x="-249" y="4234" href="#P15"></use><use x="-90" y="4539" href="#P2"></use><use x="-113" y="4692" href="#P12"></use><use x="-114" y="4883" href="#P14"></use><use x="-88" y="5058" href="#P17"></use><use x="-87" y="5251" href="#P3"></use><use x="-15" y="-155" href="#P20"></use><use x="79" y="-8" href="#P19"></use><use x="26" y="168" href="#P20"></use><use x="5" y="384" href="#P16"></use><use x="15" y="618" href="#P8"></use><use x="75" y="835" href="#P9"></use><use x="94" y="1017" href="#P8"></use><use x="57" y="1114" href="#P0"></use><use x="102" y="1383" href="#P6"></use><use x="120" y="1648" href="#P4"></use><use x="-53" y="1788" href="#P6"></use><use x="-37" y="2042" href="#P12"></use><use x="90" y="2073" href="#P12"></use><use x="113" y="2374" href="#P7"></use><use x="-47" y="2454" href="#P19"></use><use x="123" y="2701" href="#P2"></use><use x="137" y="3000" href="#P1"></use><use x="27" y="3030" href="#P16"></use><use x="111" y="3252" href="#P13"></use><use x="-12" y="3503" href="#P17"></use><use x="126" y="3654" href="#P3"></use><use x="-36" y="3811" href="#P1"></use><use x="121" y="4080" href="#P13"></use><use x="89" y="4327" href="#P0"></use><use x="101" y="4466" href="#P7"></use><use x="-43" y="4633" href="#P6"></use><use x="99" y="4819" href="#P3"></use><use x="99" y="4959" href="#P1"></use><use x="90" y="5284" href="#P15"></use><use x="217" y="-106" href="#P9"></use><use x="145" y="63" href="#P3"></use><use x="287" y="225" href="#P8"></use><use x="307" y="446" href="#P14"></use><use x="195" y="574" href="#P9"></use><use x="145" y="797" href="#P4"></use><use x="287" y="924" href="#P2"></use><use x="213" y="1148" href="#P2"></use><use x="325" y="1472" href="#P1"></use><use x="268" y="1581" href="#P18"></use><use x="188" y="1694" href="#P8"></use><use x="305" y="1966" href="#P13"></use><use x="267" y="2183" href="#P8"></use><use x="267" y="2392" href="#P5"></use><use x="166" y="2510" href="#P19"></use><use x="230" y="2804" href="#P14"></use><use x="319" y="2998" href="#P3"></use><use x="163" y="3105" href="#P13"></use><use x="337" y="3267" href="#P18"></use><use x="276" y="3519" href="#P17"></use><use x="319" y="3640" href="#P5"></use><use x="273" y="3879" href="#P15"></use><use x="198" y="3973" href="#P6"></use><use x="198" y="4321" href="#P6"></use><use x="173" y="4490" href="#P9"></use><use x="231" y="4727" href="#P17"></use><use x="187" y="4878" href="#P1"></use><use x="276" y="4979" href="#P3"></use><use x="322" y="5144" href="#P5"></use><use x="392" y="-133" href="#P13"></use><use x="441" y="84" href="#P7"></use><use x="413" y="197" href="#P2"></use><use x="387" y="381" href="#P8"></use><use x="339" y="662" href="#P3"></use><use x="468" y="715" href="#P9"></use><use x="430" y="1086" href="#P17"></use><use x="516" y="1211" href="#P5"></use><use x="439" y="1352" href="#P18"></use><use x="435" y="1666" href="#P7"></use><use x="527" y="1802" href="#P10"></use><use x="491" y="2009" href="#P7"></use><use x="389" y="2056" href="#P9"></use><use x="507" y="2312" href="#P3"></use><use x="354" y="2446" href="#P0"></use><use x="516" y="2739" href="#P9"></use><use x="404" y="3002" href="#P10"></use><use x="473" y="3191" href="#P4"></use><use x="392" y="3323" href="#P9"></use><use x="428" y="3428" href="#P18"></use><use x="442" y="3712" href="#P16"></use><use x="392" y="3857" href="#P14"></use><use x="341" y="4143" href="#P5"></use><use x="522" y="4291" href="#P3"></use><use x="376" y="4459" href="#P5"></use><use x="365" y="4714" href="#P8"></use><use x="448" y="4840" href="#P11"></use><use x="447" y="5049" href="#P10"></use><use x="521" y="5163" href="#P13"></use><use x="696" y="-119" href="#P17"></use><use x="680" y="122" href="#P13"></use><use x="569" y="220" href="#P4"></use><use x="638" y="448" href="#P19"></use><use x="690" y="666" href="#P19"></use><use x="557" y="724" href="#P3"></use><use x="653" y="958" href="#P3"></use><use x="580" y="1242" href="#P6"></use><use x="600" y="1432" href="#P5"></use><use x="666" y="1649" href="#P14"></use><use x="600" y="1859" href="#P10"></use><use x="625" y="1921" href="#P6"></use><use x="717" y="2055" href="#P5"></use><use x="651" y="2271" href="#P20"></use><use x="586" y="2482" href="#P19"></use><use x="681" y="2808" href="#P8"></use><use x="544" y="2897" href="#P17"></use><use x="554" y="3136" href="#P1"></use><use x="664" y="3219" href="#P18"></use><use x="661" y="3550" href="#P11"></use><use x="652" y="3705" href="#P13"></use><use x="719" y="3952" href="#P16"></use><use x="609" y="4011" href="#P20"></use><use x="538" y="4287" href="#P11"></use><use x="577" y="4409" href="#P9"></use><use x="639" y="4607" href="#P20"></use><use x="626" y="4822" href="#P8"></use><use x="617" y="5104" href="#P11"></use><use x="650" y="5303" href="#P12"></use><use x="788" y="-176" href="#P2"></use><use x="816" y="99" href="#P10"></use><use x="835" y="301" href="#P14"></use><use x="836" y="331" href="#P9"></use><use x="806" y="543" href="#P12"></use><use x="869" y="871" href="#P16"></use><use x="801" y="1066" href="#P0"></use><use x="929" y="1267" href="#P9"></use><use x="806" y="1402" href="#P20"></use><use x="881" y="1489" href="#P17"></use><use x="888" y="1820" href="#P4"></use><use x="748" y="1929" href="#P20"></use><use x="766" y="2052" href="#P3"></use><use x="833" y="2343" href="#P10"></use><use x="819" y="2443" href="#P16"></use><use x="752" y="2648" href="#P5"></use><use x="829" y="2866" href="#P0"></use><use x="777" y="3051" href="#P7"></use><use x="771" y="3344" href="#P18"></use><use x="828" y="3434" href="#P14"></use><use x="864" y="3764" href="#P2"></use><use x="843" y="3946" href="#P13"></use><use x="881" y="4070" href="#P6"></use><use x="908" y="4222" href="#P5"></use><use x="845" y="4408" href="#P1"></use><use x="804" y="4657" href="#P7"></use><use x="755" y="4884" href="#P3"></use><use x="894" y="5095" href="#P8"></use><use x="819" y="5256" href="#P2"></use><use x="1018" y="-145" href="#P16"></use><use x="1088" y="-45" href="#P10"></use><use x="1079" y="226" href="#P8"></use><use x="1060" y="380" href="#P1"></use><use x="1031" y="543" href="#P15"></use><use x="995" y="860" href="#P16"></use><use x="1087" y="1085" href="#P9"></use><use x="1038" y="1108" href="#P8"></use><use x="1057" y="1369" href="#P6"></use><use x="1119" y="1506" href="#P20"></use><use x="1042" y="1832" href="#P7"></use><use x="997" y="1962" href="#P7"></use><use x="1102" y="2187" href="#P16"></use><use x="1016" y="2290" href="#P10"></use><use x="1001" y="2439" href="#P2"></use><use x="986" y="2685" href="#P4"></use><use x="946" y="2993" href="#P9"></use><use x="1005" y="3047" href="#P0"></use><use x="944" y="3356" href="#P17"></use><use x="962" y="3427" href="#P5"></use><use x="1065" y="3622" href="#P5"></use><use x="1093" y="3870" href="#P15"></use><use x="936" y="4103" href="#P16"></use><use x="1011" y="4298" href="#P6"></use><use x="1078" y="4398" href="#P6"></use><use x="939" y="4664" href="#P2"></use><use x="1053" y="4880" href="#P1"></use><use x="1005" y="4964" href="#P10"></use><use x="1001" y="5251" href="#P8"></use><use x="1138" y="-157" href="#P19"></use><use x="1316" y="-38" href="#P11"></use><use x="1204" y="323" href="#P10"></use><use x="1226" y="393" href="#P18"></use><use x="1307" y="570" href="#P6"></use><use x="1146" y="725" href="#P14"></use><use x="1286" y="918" href="#P14"></use><use x="1292" y="1177" href="#P12"></use><use x="1224" y="1445" href="#P11"></use><use x="1184" y="1590" href="#P13"></use><use x="1151" y="1737" href="#P16"></use><use x="1262" y="1991" href="#P6"></use><use x="1193" y="2142" href="#P15"></use><use x="1221" y="2318" href="#P5"></use><use x="1236" y="2444" href="#P18"></use><use x="1266" y="2661" href="#P2"></use><use x="1168" y="2948" href="#P9"></use><use x="1268" y="3071" href="#P0"></use><use x="1215" y="3286" href="#P3"></use><use x="1181" y="3482" href="#P2"></use><use x="1211" y="3700" href="#P15"></use><use x="1256" y="3912" href="#P17"></use><use x="1170" y="4143" href="#P6"></use><use x="1270" y="4186" href="#P16"></use><use x="1286" y="4376" href="#P1"></use><use x="1315" y="4605" href="#P20"></use><use x="1223" y="4844" href="#P9"></use><use x="1309" y="4961" href="#P7"></use><use x="1267" y="5178" href="#P4"></use><use x="1343" y="-250" href="#P10"></use><use x="1338" y="-51" href="#P7"></use><use x="1461" y="187" href="#P8"></use><use x="1382" y="473" href="#P16"></use><use x="1354" y="702" href="#P15"></use><use x="1363" y="855" href="#P11"></use><use x="1496" y="906" href="#P10"></use><use x="1444" y="1149" href="#P17"></use><use x="1489" y="1399" href="#P6"></use><use x="1437" y="1563" href="#P13"></use><use x="1428" y="1696" href="#P2"></use><use x="1406" y="2005" href="#P18"></use><use x="1391" y="2075" href="#P0"></use><use x="1418" y="2282" href="#P18"></use><use x="1396" y="2511" href="#P2"></use><use x="1403" y="2655" href="#P5"></use><use x="1495" y="2961" href="#P4"></use><use x="1366" y="3084" href="#P10"></use><use x="1476" y="3244" href="#P9"></use><use x="1333" y="3518" href="#P11"></use><use x="1349" y="3710" href="#P4"></use><use x="1398" y="3882" href="#P3"></use><use x="1510" y="4143" href="#P12"></use><use x="1375" y="4285" href="#P6"></use><use x="1412" y="4501" href="#P7"></use><use x="1357" y="4717" href="#P8"></use><use x="1381" y="4765" href="#P11"></use><use x="1370" y="4967" href="#P6"></use><use x="1335" y="5180" href="#P16"></use><use x="1631" y="-188" href="#P4"></use><use x="1589" y="120" href="#P11"></use><use x="1543" y="196" href="#P4"></use><use x="1539" y="429" href="#P2"></use><use x="1681" y="685" href="#P20"></use><use x="1662" y="819" href="#P13"></use><use x="1642" y="1059" href="#P18"></use><use x="1629" y="1137" href="#P5"></use><use x="1709" y="1368" href="#P7"></use><use x="1678" y="1588" href="#P14"></use><use x="1660" y="1765" href="#P12"></use><use x="1518" y="1949" href="#P1"></use><use x="1692" y="2088" href="#P4"></use><use x="1686" y="2258" href="#P17"></use><use x="1550" y="2543" href="#P8"></use><use x="1602" y="2699" href="#P7"></use><use x="1714" y="2990" href="#P15"></use><use x="1527" y="3174" href="#P18"></use><use x="1712" y="3327" href="#P10"></use><use x="1542" y="3568" href="#P20"></use><use x="1582" y="3698" href="#P9"></use><use x="1518" y="3916" href="#P2"></use><use x="1690" y="4032" href="#P17"></use><use x="1545" y="4203" href="#P9"></use><use x="1684" y="4377" href="#P0"></use><use x="1520" y="4556" href="#P11"></use><use x="1687" y="4918" href="#P7"></use><use x="1562" y="5066" href="#P8"></use><use x="1572" y="5296" href="#P9"></use><use x="1771" y="-209" href="#P3"></use><use x="1737" y="19" href="#P3"></use><use x="1736" y="184" href="#P15"></use><use x="1856" y="438" href="#P7"></use><use x="1765" y="619" href="#P14"></use><use x="1718" y="716" href="#P15"></use><use x="1872" y="969" href="#P13"></use><use x="1852" y="1188" href="#P9"></use><use x="1871" y="1410" href="#P12"></use><use x="1755" y="1529" href="#P12"></use><use x="1805" y="1711" href="#P16"></use><use x="1817" y="2051" href="#P5"></use><use x="1876" y="2163" href="#P13"></use><use x="1714" y="2349" href="#P1"></use><use x="1729" y="2553" href="#P2"></use><use x="1815" y="2718" href="#P12"></use><use x="1758" y="2844" href="#P16"></use><use x="1857" y="3035" href="#P5"></use><use x="1821" y="3375" href="#P12"></use><use x="1748" y="3529" href="#P9"></use><use x="1775" y="3747" href="#P12"></use><use x="1765" y="3917" href="#P5"></use><use x="1787" y="3983" href="#P20"></use><use x="1851" y="4178" href="#P0"></use><use x="1780" y="4440" href="#P11"></use><use x="1843" y="4558" href="#P8"></use><use x="1728" y="4899" href="#P3"></use><use x="1731" y="4988" href="#P3"></use><use x="1850" y="5268" href="#P15"></use><use x="2007" y="-71" href="#P19"></use><use x="2024" y="-33" href="#P5"></use><use x="2040" y="136" href="#P20"></use><use x="2022" y="393" href="#P19"></use><use x="2088" y="649" href="#P6"></use><use x="1981" y="761" href="#P14"></use><use x="1936" y="1064" href="#P4"></use><use x="2025" y="1134" href="#P3"></use><use x="1964" y="1344" href="#P16"></use><use x="1943" y="1566" href="#P5"></use><use x="2078" y="1728" href="#P4"></use><use x="1965" y="2004" href="#P4"></use><use x="2093" y="2110" href="#P3"></use><use x="2013" y="2331" href="#P1"></use><use x="2070" y="2609" href="#P1"></use><use x="1988" y="2727" href="#P9"></use><use x="2034" y="2957" href="#P18"></use><use x="1940" y="3075" href="#P17"></use><use x="2025" y="3378" href="#P13"></use><use x="1949" y="3449" href="#P9"></use><use x="1983" y="3697" href="#P18"></use><use x="2097" y="3782" href="#P1"></use><use x="2016" y="4127" href="#P1"></use><use x="1968" y="4282" href="#P3"></use><use x="1916" y="4358" href="#P10"></use><use x="2067" y="4722" href="#P10"></use><use x="2044" y="4784" href="#P7"></use><use x="2037" y="5008" href="#P5"></use><use x="2018" y="5167" href="#P13"></use><use x="2202" y="-231" href="#P18"></use><use x="2257" y="78" href="#P6"></use><use x="2118" y="136" href="#P19"></use><use x="2205" y="513" href="#P18"></use><use x="2256" y="653" href="#P8"></use><use x="2144" y="767" href="#P15"></use><use x="2208" y="1043" href="#P3"></use><use x="2146" y="1137" href="#P20"></use><use x="2268" y="1346" href="#P2"></use><use x="2180" y="1486" href="#P8"></use><use x="2251" y="1702" href="#P17"></use><use x="2111" y="1908" href="#P2"></use><use x="2250" y="2096" href="#P19"></use><use x="2242" y="2344" href="#P18"></use><use x="2147" y="2623" href="#P2"></use><use x="2206" y="2636" href="#P4"></use><use x="2171" y="2900" href="#P1"></use><use x="2226" y="3069" href="#P3"></use><use x="2273" y="3364" href="#P14"></use><use x="2108" y="3510" href="#P10"></use><use x="2150" y="3711" href="#P19"></use><use x="2240" y="3960" href="#P7"></use><use x="2140" y="4004" href="#P13"></use><use x="2201" y="4300" href="#P2"></use><use x="2287" y="4401" href="#P10"></use><use x="2300" y="4567" href="#P19"></use><use x="2124" y="4904" href="#P1"></use><use x="2197" y="5086" href="#P6"></use><use x="2301" y="5182" href="#P19"></use><use x="2332" y="-194" href="#P12"></use><use x="2448" y="121" href="#P20"></use><use x="2379" y="213" href="#P19"></use><use x="2476" y="507" href="#P18"></use><use x="2362" y="671" href="#P14"></use><use x="2483" y="884" href="#P20"></use><use x="2389" y="1031" href="#P12"></use><use x="2305" y="1125" href="#P19"></use><use x="2445" y="1311" href="#P17"></use><use x="2388" y="1562" href="#P5"></use><use x="2414" y="1854" href="#P6"></use><use x="2373" y="1879" href="#P9"></use><use x="2494" y="2164" href="#P20"></use><use x="2411" y="2365" href="#P15"></use><use x="2317" y="2455" href="#P4"></use><use x="2330" y="2689" href="#P5"></use><use x="2319" y="2964" href="#P14"></use><use x="2420" y="3024" href="#P0"></use><use x="2394" y="3238" href="#P1"></use><use x="2333" y="3408" href="#P18"></use><use x="2363" y="3735" href="#P11"></use><use x="2333" y="3923" href="#P2"></use><use x="2372" y="3997" href="#P1"></use><use x="2307" y="4296" href="#P20"></use><use x="2398" y="4438" href="#P13"></use><use x="2441" y="4635" href="#P2"></use><use x="2484" y="4795" href="#P7"></use><use x="2307" y="5079" href="#P9"></use><use x="2430" y="5268" href="#P20"></use><use x="2544" y="-245" href="#P12"></use><use x="2580" y="31" href="#P19"></use><use x="2611" y="228" href="#P2"></use><use x="2533" y="485" href="#P6"></use><use x="2643" y="541" href="#P15"></use><use x="2612" y="750" href="#P13"></use><use x="2578" y="930" href="#P3"></use><use x="2560" y="1168" href="#P10"></use><use x="2682" y="1357" href="#P20"></use><use x="2529" y="1506" href="#P12"></use><use x="2565" y="1795" href="#P7"></use><use x="2593" y="2047" href="#P18"></use><use x="2502" y="2161" href="#P8"></use><use x="2688" y="2430" href="#P10"></use><use x="2641" y="2625" href="#P0"></use><use x="2525" y="2687" href="#P15"></use><use x="2514" y="2936" href="#P0"></use><use x="2689" y="3108" href="#P1"></use><use x="2598" y="3217" href="#P12"></use><use x="2564" y="3575" href="#P6"></use><use x="2650" y="3744" href="#P20"></use><use x="2631" y="3883" href="#P13"></use><use x="2558" y="4101" href="#P13"></use><use x="2550" y="4183" href="#P7"></use><use x="2671" y="4396" href="#P15"></use><use x="2618" y="4557" href="#P20"></use><use x="2593" y="4817" href="#P3"></use><use x="2647" y="5116" href="#P2"></use><use x="2563" y="5287" href="#P12"></use><use x="2790" y="-166" href="#P0"></use><use x="2746" y="2" href="#P9"></use><use x="2744" y="195" href="#P4"></use><use x="2761" y="394" href="#P9"></use><use x="2858" y="575" href="#P16"></use><use x="2813" y="787" href="#P8"></use><use x="2712" y="995" href="#P9"></use><use x="2787" y="1280" href="#P17"></use><use x="2833" y="1332" href="#P12"></use><use x="2745" y="1621" href="#P4"></use><use x="2799" y="1832" href="#P1"></use><use x="2817" y="2038" href="#P3"></use><use x="2734" y="2127" href="#P20"></use><use x="2889" y="2403" href="#P15"></use><use x="2760" y="2502" href="#P16"></use><use x="2757" y="2703" href="#P4"></use><use x="2818" y="3009" href="#P16"></use><use x="2877" y="3188" href="#P3"></use><use x="2723" y="3314" href="#P12"></use><use x="2820" y="3418" href="#P1"></use><use x="2858" y="3697" href="#P13"></use><use x="2712" y="3858" href="#P18"></use><use x="2779" y="4139" href="#P16"></use><use x="2748" y="4241" href="#P18"></use><use x="2823" y="4522" href="#P15"></use><use x="2762" y="4580" href="#P12"></use><use x="2814" y="4913" href="#P14"></use><use x="2713" y="5034" href="#P15"></use><use x="2797" y="5304" href="#P15"></use><use x="2907" y="-207" href="#P5"></use><use x="3047" y="46" href="#P12"></use><use x="3028" y="203" href="#P5"></use><use x="2964" y="468" href="#P15"></use><use x="2933" y="565" href="#P15"></use><use x="2947" y="718" href="#P12"></use><use x="2977" y="934" href="#P0"></use><use x="2957" y="1170" href="#P5"></use><use x="3042" y="1451" href="#P4"></use><use x="3035" y="1509" href="#P7"></use><use x="3050" y="1764" href="#P19"></use><use x="2974" y="1906" href="#P2"></use><use x="3066" y="2173" href="#P7"></use><use x="3011" y="2288" href="#P13"></use><use x="2921" y="2496" href="#P9"></use><use x="2956" y="2755" href="#P2"></use><use x="2993" y="2981" href="#P13"></use><use x="3061" y="3104" href="#P11"></use><use x="3027" y="3243" href="#P6"></use><use x="3057" y="3581" href="#P15"></use><use x="2901" y="3707" href="#P10"></use><use x="2911" y="3942" href="#P19"></use><use x="2963" y="4086" href="#P15"></use><use x="3034" y="4313" href="#P20"></use><use x="2975" y="4419" href="#P2"></use><use x="3052" y="4708" href="#P0"></use><use x="2982" y="4906" href="#P1"></use><use x="3011" y="4959" href="#P8"></use><use x="2994" y="5238" href="#P6"></use><use x="3249" y="-96" href="#P11"></use><use x="3278" y="127" href="#P16"></use><use x="3283" y="283" href="#P13"></use><use x="3158" y="360" href="#P14"></use><use x="3157" y="528" href="#P3"></use><use x="3264" y="826" href="#P18"></use><use x="3120" y="1028" href="#P19"></use><use x="3182" y="1102" href="#P11"></use><use x="3149" y="1431" href="#P14"></use><use x="3180" y="1606" href="#P16"></use><use x="3105" y="1759" href="#P0"></use><use x="3228" y="1955" href="#P5"></use><use x="3098" y="2223" href="#P12"></use><use x="3093" y="2340" href="#P14"></use><use x="3253" y="2439" href="#P7"></use><use x="3272" y="2795" href="#P18"></use><use x="3123" y="2951" href="#P2"></use><use x="3260" y="3089" href="#P11"></use><use x="3136" y="3215" href="#P13"></use><use x="3209" y="3400" href="#P2"></use><use x="3217" y="3772" href="#P19"></use><use x="3194" y="3905" href="#P0"></use><use x="3236" y="4024" href="#P5"></use><use x="3204" y="4285" href="#P18"></use><use x="3094" y="4389" href="#P8"></use><use x="3113" y="4660" href="#P17"></use><use x="3210" y="4766" href="#P15"></use><use x="3228" y="4989" href="#P19"></use><use x="3284" y="5202" href="#P13"></use><use x="3371" y="-166" href="#P13"></use><use x="3439" y="62" href="#P17"></use><use x="3316" y="215" href="#P20"></use><use x="3416" y="359" href="#P19"></use><use x="3478" y="582" href="#P20"></use><use x="3430" y="769" href="#P8"></use><use x="3310" y="1034" href="#P0"></use><use x="3471" y="1223" href="#P5"></use><use x="3454" y="1470" href="#P14"></use><use x="3301" y="1520" href="#P5"></use><use x="3464" y="1741" href="#P15"></use><use x="3457" y="1976" href="#P14"></use><use x="3348" y="2084" href="#P20"></use><use x="3403" y="2316" href="#P1"></use><use x="3446" y="2579" href="#P16"></use><use x="3361" y="2817" href="#P8"></use><use x="3358" y="2834" href="#P7"></use><use x="3429" y="3087" href="#P3"></use><use x="3300" y="3233" href="#P7"></use><use x="3327" y="3480" href="#P19"></use><use x="3446" y="3590" href="#P4"></use><use x="3335" y="3966" href="#P11"></use><use x="3298" y="4032" href="#P5"></use><use x="3478" y="4336" href="#P19"></use><use x="3452" y="4529" href="#P11"></use><use x="3369" y="4656" href="#P17"></use><use x="3287" y="4863" href="#P7"></use><use x="3359" y="4997" href="#P16"></use><use x="3380" y="5296" href="#P4"></use><use x="3536" y="-110" href="#P13"></use><use x="3650" y="23" href="#P15"></use><use x="3642" y="236" href="#P0"></use><use x="3609" y="353" href="#P16"></use><use x="3482" y="657" href="#P13"></use><use x="3607" y="847" href="#P19"></use><use x="3509" y="963" href="#P6"></use><use x="3648" y="1147" href="#P11"></use><use x="3643" y="1302" href="#P4"></use><use x="3543" y="1500" href="#P17"></use><use x="3610" y="1807" href="#P8"></use><use x="3560" y="2016" href="#P2"></use><use x="3671" y="2213" href="#P4"></use><use x="3550" y="2430" href="#P17"></use><use x="3583" y="2619" href="#P12"></use><use x="3666" y="2726" href="#P19"></use><use x="3678" y="2891" href="#P2"></use><use x="3535" y="3191" href="#P17"></use><use x="3578" y="3253" href="#P10"></use><use x="3658" y="3520" href="#P0"></use><use x="3580" y="3694" href="#P5"></use><use x="3567" y="3968" href="#P17"></use><use x="3646" y="4033" href="#P18"></use><use x="3547" y="4332" href="#P13"></use><use x="3523" y="4492" href="#P20"></use><use x="3660" y="4707" href="#P10"></use><use x="3588" y="4769" href="#P0"></use><use x="3664" y="5032" href="#P19"></use><use x="3650" y="5287" href="#P4"></use><use x="3757" y="-88" href="#P20"></use><use x="3821" y="104" href="#P10"></use><use x="3760" y="275" href="#P13"></use><use x="3788" y="423" href="#P4"></use><use x="3707" y="540" href="#P2"></use><use x="3684" y="784" href="#P10"></use><use x="3771" y="1043" href="#P16"></use><use x="3771" y="1147" href="#P20"></use><use x="3773" y="1334" href="#P7"></use><use x="3695" y="1535" href="#P2"></use><use x="3797" y="1822" href="#P14"></use><use x="3835" y="1886" href="#P0"></use><use x="3831" y="2180" href="#P4"></use><use x="3724" y="2362" href="#P2"></use><use x="3753" y="2436" href="#P10"></use><use x="3722" y="2812" href="#P15"></use><use x="3708" y="2937" href="#P5"></use><use x="3742" y="3189" href="#P10"></use><use x="3808" y="3306" href="#P11"></use><use x="3735" y="3580" href="#P15"></use><use x="3726" y="3654" href="#P15"></use><use x="3781" y="3864" href="#P2"></use><use x="3859" y="4060" href="#P18"></use><use x="3742" y="4200" href="#P4"></use><use x="3793" y="4500" href="#P0"></use><use x="3827" y="4566" href="#P4"></use><use x="3724" y="4876" href="#P16"></use><use x="3791" y="5092" href="#P12"></use><use x="3791" y="5254" href="#P10"></use><use x="3878" y="-245" href="#P12"></use><use x="3959" y="133" href="#P0"></use><use x="3978" y="206" href="#P3"></use><use x="4034" y="455" href="#P0"></use><use x="3970" y="599" href="#P10"></use><use x="4062" y="878" href="#P1"></use><use x="3955" y="998" href="#P6"></use><use x="4003" y="1269" href="#P0"></use><use x="3926" y="1299" href="#P1"></use><use x="3898" y="1494" href="#P17"></use><use x="4025" y="1729" href="#P4"></use><use x="3951" y="1995" href="#P13"></use><use x="3892" y="2151" href="#P12"></use><use x="3948" y="2417" href="#P0"></use><use x="4012" y="2584" href="#P19"></use><use x="4040" y="2766" href="#P5"></use><use x="3988" y="2841" href="#P8"></use><use x="3912" y="3043" href="#P4"></use><use x="3964" y="3376" href="#P19"></use><use x="3962" y="3532" href="#P19"></use><use x="3889" y="3633" href="#P19"></use><use x="3962" y="3807" href="#P11"></use><use x="4037" y="4151" href="#P19"></use><use x="4046" y="4331" href="#P15"></use><use x="4065" y="4519" href="#P3"></use><use x="4022" y="4680" href="#P20"></use><use x="4013" y="4828" href="#P19"></use><use x="3915" y="5033" href="#P20"></use><use x="3907" y="5281" href="#P5"></use><use x="4185" y="-136" href="#P5"></use><use x="4119" y="-53" href="#P10"></use><use x="4133" y="294" href="#P13"></use><use x="4151" y="393" href="#P20"></use><use x="4216" y="596" href="#P18"></use><use x="4126" y="868" href="#P9"></use><use x="4164" y="996" href="#P1"></use><use x="4212" y="1159" href="#P15"></use><use x="4255" y="1375" href="#P14"></use><use x="4231" y="1636" href="#P13"></use><use x="4173" y="1799" href="#P17"></use><use x="4218" y="1902" href="#P9"></use><use x="4263" y="2057" href="#P19"></use><use x="4102" y="2289" href="#P7"></use><use x="4158" y="2549" href="#P19"></use><use x="4077" y="2634" href="#P17"></use><use x="4126" y="2895" href="#P18"></use><use x="4150" y="3043" href="#P7"></use><use x="4164" y="3387" href="#P4"></use><use x="4151" y="3542" href="#P12"></use><use x="4074" y="3681" href="#P11"></use><use x="4117" y="3946" href="#P3"></use><use x="4225" y="4153" href="#P4"></use><use x="4091" y="4274" href="#P2"></use><use x="4094" y="4409" href="#P20"></use><use x="4087" y="4656" href="#P10"></use><use x="4216" y="4824" href="#P16"></use><use x="4077" y="5105" href="#P2"></use><use x="4095" y="5218" href="#P19"></use><use x="4326" y="-238" href="#P3"></use><use x="4272" y="58" href="#P3"></use><use x="4339" y="325" href="#P8"></use><use x="4371" y="508" href="#P15"></use><use x="4402" y="600" href="#P17"></use><use x="4359" y="749" href="#P20"></use><use x="4456" y="1060" href="#P3"></use><use x="4387" y="1149" href="#P15"></use><use x="4283" y="1329" href="#P13"></use><use x="4297" y="1620" href="#P3"></use><use x="4402" y="1853" href="#P15"></use><use x="4330" y="1935" href="#P6"></use><use x="4374" y="2212" href="#P2"></use><use x="4394" y="2404" href="#P8"></use><use x="4400" y="2586" href="#P9"></use><use x="4296" y="2813" href="#P3"></use><use x="4344" y="2939" href="#P0"></use><use x="4333" y="3148" href="#P19"></use><use x="4380" y="3284" href="#P11"></use><use x="4298" y="3455" href="#P18"></use><use x="4287" y="3660" href="#P14"></use><use x="4436" y="3865" href="#P1"></use><use x="4425" y="4057" href="#P19"></use><use x="4357" y="4291" href="#P16"></use><use x="4307" y="4388" href="#P14"></use><use x="4322" y="4668" href="#P8"></use><use x="4463" y="4753" href="#P13"></use><use x="4463" y="5083" href="#P17"></use><use x="4391" y="5220" href="#P19"></use><use x="4651" y="-190" href="#P9"></use><use x="4661" y="-15" href="#P8"></use><use x="4563" y="199" href="#P18"></use><use x="4541" y="420" href="#P1"></use><use x="4507" y="569" href="#P7"></use><use x="4613" y="853" href="#P1"></use><use x="4568" y="962" href="#P10"></use><use x="4535" y="1095" href="#P6"></use><use x="4631" y="1348" href="#P14"></use><use x="4643" y="1668" href="#P7"></use><use x="4581" y="1770" href="#P9"></use><use x="4572" y="1957" href="#P8"></use><use x="4472" y="2090" href="#P12"></use><use x="4529" y="2310" href="#P7"></use><use x="4594" y="2505" href="#P2"></use><use x="4481" y="2711" href="#P8"></use><use x="4590" y="2964" href="#P4"></use><use x="4561" y="3109" href="#P8"></use><use x="4605" y="3266" href="#P14"></use><use x="4503" y="3399" href="#P1"></use><use x="4654" y="3695" href="#P8"></use><use x="4569" y="3944" href="#P6"></use><use x="4587" y="4090" href="#P0"></use><use x="4646" y="4326" href="#P2"></use><use x="4481" y="4483" href="#P3"></use><use x="4477" y="4660" href="#P17"></use><use x="4620" y="4865" href="#P3"></use><use x="4501" y="4978" href="#P1"></use><use x="4564" y="5284" href="#P15"></use><use x="4792" y="-227" href="#P11"></use><use x="4748" y="71" href="#P11"></use><use x="4709" y="278" href="#P3"></use><use x="4729" y="445" href="#P1"></use><use x="4719" y="679" href="#P16"></use><use x="4694" y="723" href="#P15"></use><use x="4736" y="999" href="#P3"></use><use x="4744" y="1163" href="#P13"></use><use x="4668" y="1456" href="#P1"></use><use x="4682" y="1627" href="#P15"></use><use x="4760" y="1686" href="#P12"></use><use x="4819" y="1951" href="#P8"></use><use x="4734" y="2188" href="#P12"></use><use x="4717" y="2368" href="#P17"></use><use x="4814" y="2500" href="#P7"></use><use x="4683" y="2651" href="#P5"></use><use x="4711" y="2895" href="#P2"></use><use x="4759" y="3015" href="#P5"></use><use x="4735" y="3308" href="#P9"></use><use x="4667" y="3460" href="#P15"></use><use x="4665" y="3655" href="#P11"></use><use x="4754" y="3909" href="#P9"></use><use x="4669" y="4108" href="#P5"></use><use x="4758" y="4273" href="#P17"></use><use x="4700" y="4369" href="#P5"></use><use x="4755" y="4553" href="#P2"></use><use x="4702" y="4815" href="#P12"></use><use x="4697" y="5117" href="#P4"></use><use x="4811" y="5304" href="#P13"></use><use x="4933" y="-80" href="#P5"></use><use x="4986" y="37" href="#P8"></use><use x="5011" y="221" href="#P13"></use><use x="4894" y="472" href="#P1"></use><use x="4933" y="603" href="#P20"></use><use x="4887" y="775" href="#P20"></use><use x="4868" y="988" href="#P9"></use><use x="5025" y="1221" href="#P3"></use><use x="5001" y="1423" href="#P20"></use><use x="4930" y="1551" href="#P18"></use><use x="4907" y="1712" href="#P10"></use><use x="4937" y="1870" href="#P15"></use><use x="4879" y="2239" href="#P16"></use><use x="5044" y="2348" href="#P3"></use><use x="4906" y="2571" href="#P1"></use><use x="4951" y="2770" href="#P3"></use><use x="4998" y="2882" href="#P4"></use><use x="5045" y="3084" href="#P12"></use><use x="4944" y="3287" href="#P2"></use><use x="4926" y="3582" href="#P9"></use><use x="4980" y="3762" href="#P1"></use><use x="4987" y="3922" href="#P20"></use><use x="5053" y="4144" href="#P7"></use><use x="4874" y="4197" href="#P3"></use><use x="5003" y="4399" href="#P19"></use><use x="4984" y="4600" href="#P18"></use><use x="5008" y="4828" href="#P13"></use><use x="4911" y="5110" href="#P15"></use><use x="5042" y="5228" href="#P18"></use><use x="5135" y="-102" href="#P4"></use><use x="5186" y="-26" href="#P19"></use><use x="5076" y="138" href="#P10"></use><use x="5106" y="333" href="#P13"></use><use x="5150" y="591" href="#P13"></use><use x="5174" y="738" href="#P17"></use><use x="5152" y="1076" href="#P19"></use><use x="5138" y="1199" href="#P16"></use><use x="5058" y="1396" href="#P6"></use><use x="5217" y="1644" href="#P18"></use><use x="5108" y="1766" href="#P3"></use><use x="5075" y="2031" href="#P0"></use><use x="5099" y="2163" href="#P12"></use><use x="5216" y="2285" href="#P2"></use><use x="5131" y="2536" href="#P18"></use><use x="5102" y="2766" href="#P7"></use><use x="5161" y="3001" href="#P10"></use><use x="5093" y="3110" href="#P20"></use><use x="5071" y="3391" href="#P17"></use><use x="5247" y="3438" href="#P14"></use><use x="5099" y="3692" href="#P16"></use><use x="5218" y="3799" href="#P15"></use><use x="5166" y="4159" href="#P15"></use><use x="5096" y="4176" href="#P11"></use><use x="5074" y="4472" href="#P8"></use><use x="5234" y="4720" href="#P10"></use><use x="5132" y="4783" href="#P2"></use><use x="5226" y="4930" href="#P4"></use><use x="5117" y="5303" href="#P4"></use></g></svg>