<svg xlink="http://www.w3.org/1999/xlink" viewBox="0 0 5000 5000" xmlns="http://www.w3.org/2000/svg" style="transform: scale(1);"><defs><filter id="goo"><feGaussianBlur in="SourceGraphic" stdDeviation="0" result="blur"></feGaussianBlur><feColorMatrix in="blur" type="matrix" values="1 0 0 0 0 0 1 0 0 0 0 0 1 0 0 0 0 0 19 -9" result="good"></feColorMatrix><feComposite in="SourceGraphic" in2="goo" operator="atop"></feComposite></filter><path d="M392,54C328,156 281,217 312,184C292,227 306,239 359,257C301,278 307,329 273,431C256,342 250,365 236,478C199,359 195,302 118,302C180,268 132,265 16,235C134,212 221,232 205,202C239,216 266,122 392,54z" id="P0"></path><path d="M404,322C315,311 268,283 263,320C248,287 227,321 165,366C192,298 206,271 159,267C202,244 162,208 123,114C199,169 223,182 223,111C250,177 261,192 292,143C295,208 315,229 377,266C313,266 331,282 404,322z" id="P1"></path><path d="M244,159C259,204 289,166 355,106C326,195 326,225 402,240C327,270 337,305 376,402C294,343 265,327 231,400C231,325 218,331 168,400C189,315 180,294 99,299C166,245 137,197 100,68C191,143 236,205 244,159z" id="P2"></path><path d="M153,275C197,240 194,209 181,141C222,190 240,219 234,189C252,217 282,170 362,130C322,204 295,235 340,239C297,256 363,295 430,399C310,359 259,318 226,377C226,312 216,303 166,339C199,287 203,272 153,275z" id="P3"></path><path d="M299,57C306,162 337,178 444,159C361,236 353,270 425,346C326,321 304,336 310,435C263,350 245,335 199,407C209,324 174,341 64,385C147,307 197,271 141,271C193,231 162,157 206,17C242,129 256,149 299,57z" id="P4"></path><path d="M168,424C181,323 161,299 59,286C149,231 152,188 133,66C203,149 224,169 229,85C255,165 264,194 298,149C290,207 278,235 309,239C281,252 323,274 375,329C303,306 285,314 276,389C250,323 231,347 168,424z" id="P5"></path><path d="M163,32C227,131 250,195 263,145C277,201 344,172 464,165C364,221 367,235 482,235C365,296 332,337 319,463C257,366 238,313 191,358C210,299 208,285 161,307C199,270 213,257 177,255C214,236 164,158 163,32z" id="P6"></path></defs><rect id="RECT" width="5000" height="5000" fill="#FFFFFF"></rect><g id="group" fill="#EC0650" filter="" opacity="0.91"><use x="-116" y="-91" href="#P3"></use><use x="-239" y="46" href="#P2"></use><use x="-212" y="267" href="#P6"></use><use x="-173" y="381" href="#P3"></use><use x="-250" y="492" href="#P2"></use><use x="-156" y="769" href="#P6"></use><use x="-179" y="980" href="#P4"></use><use x="-114" y="1103" href="#P5"></use><use x="-213" y="1342" href="#P0"></use><use x="-229" y="1524" href="#P5"></use><use x="-120" y="1735" href="#P0"></use><use x="-137" y="1864" href="#P6"></use><use x="-233" y="2013" href="#P1"></use><use x="-147" y="2298" href="#P6"></use><use x="-89" y="2341" href="#P6"></use><use x="-224" y="2609" href="#P1"></use><use x="-120" y="2821" href="#P4"></use><use x="-250" y="2873" href="#P3"></use><use x="-194" y="3088" href="#P5"></use><use x="-77" y="3315" href="#P1"></use><use x="-210" y="3502" href="#P5"></use><use x="-137" y="3646" href="#P5"></use><use x="-113" y="3797" href="#P0"></use><use x="-191" y="4088" href="#P0"></use><use x="-94" y="4271" href="#P6"></use><use x="-127" y="4349" href="#P0"></use><use x="-117" y="4556" href="#P6"></use><use x="-95" y="4806" href="#P2"></use><use x="-147" y="4969" href="#P2"></use><use x="-211" y="5177" href="#P2"></use><use x="108" y="-162" href="#P4"></use><use x="-13" y="9" href="#P6"></use><use x="36" y="189" href="#P1"></use><use x="83" y="320" href="#P6"></use><use x="100" y="496" href="#P1"></use><use x="-37" y="806" href="#P1"></use><use x="100" y="991" href="#P0"></use><use x="39" y="1132" href="#P6"></use><use x="-52" y="1289" href="#P3"></use><use x="-6" y="1505" href="#P4"></use><use x="81" y="1585" href="#P3"></use><use x="70" y="1871" href="#P3"></use><use x="-1" y="2046" href="#P1"></use><use x="32" y="2143" href="#P0"></use><use x="-28" y="2472" href="#P5"></use><use x="109" y="2650" href="#P6"></use><use x="-32" y="2828" href="#P6"></use><use x="28" y="2971" href="#P1"></use><use x="-6" y="3172" href="#P5"></use><use x="66" y="3237" href="#P0"></use><use x="-12" y="3446" href="#P5"></use><use x="107" y="3605" href="#P3"></use><use x="52" y="3810" href="#P3"></use><use x="-22" y="4074" href="#P4"></use><use x="32" y="4276" href="#P2"></use><use x="-34" y="4511" href="#P0"></use><use x="66" y="4608" href="#P6"></use><use x="37" y="4880" href="#P1"></use><use x="-12" y="4923" href="#P2"></use><use x="-9" y="5219" href="#P6"></use><use x="134" y="-169" href="#P6"></use><use x="241" y="-19" href="#P4"></use><use x="210" y="216" href="#P0"></use><use x="299" y="383" href="#P4"></use><use x="270" y="559" href="#P2"></use><use x="219" y="772" href="#P6"></use><use x="120" y="851" href="#P2"></use><use x="142" y="1038" href="#P3"></use><use x="241" y="1239" href="#P6"></use><use x="284" y="1541" href="#P3"></use><use x="271" y="1741" href="#P5"></use><use x="158" y="1909" href="#P6"></use><use x="284" y="2052" href="#P0"></use><use x="201" y="2181" href="#P3"></use><use x="273" y="2327" href="#P6"></use><use x="180" y="2653" href="#P5"></use><use x="201" y="2784" href="#P1"></use><use x="137" y="2934" href="#P1"></use><use x="185" y="3160" href="#P5"></use><use x="270" y="3416" href="#P6"></use><use x="170" y="3497" href="#P3"></use><use x="160" y="3700" href="#P4"></use><use x="192" y="3835" href="#P0"></use><use x="176" y="4109" href="#P0"></use><use x="262" y="4248" href="#P1"></use><use x="243" y="4393" href="#P5"></use><use x="183" y="4553" href="#P5"></use><use x="170" y="4793" href="#P3"></use><use x="293" y="4907" href="#P0"></use><use x="267" y="5132" href="#P2"></use><use x="440" y="-71" href="#P5"></use><use x="323" y="-46" href="#P1"></use><use x="393" y="122" href="#P6"></use><use x="449" y="465" href="#P3"></use><use x="318" y="646" href="#P0"></use><use x="399" y="684" href="#P6"></use><use x="339" y="1022" href="#P5"></use><use x="301" y="1033" href="#P2"></use><use x="305" y="1351" href="#P1"></use><use x="308" y="1519" href="#P4"></use><use x="301" y="1695" href="#P5"></use><use x="362" y="1949" href="#P5"></use><use x="480" y="2008" href="#P3"></use><use x="351" y="2291" href="#P4"></use><use x="374" y="2362" href="#P2"></use><use x="303" y="2670" href="#P6"></use><use x="326" y="2716" href="#P6"></use><use x="319" y="2970" href="#P1"></use><use x="418" y="3097" href="#P3"></use><use x="438" y="3274" href="#P2"></use><use x="415" y="3576" href="#P6"></use><use x="341" y="3621" href="#P2"></use><use x="313" y="3937" href="#P2"></use><use x="361" y="4025" href="#P2"></use><use x="358" y="4271" href="#P1"></use><use x="403" y="4487" href="#P5"></use><use x="390" y="4677" href="#P3"></use><use x="328" y="4737" href="#P2"></use><use x="440" y="5056" href="#P4"></use><use x="337" y="5113" href="#P2"></use><use x="527" y="-107" href="#P6"></use><use x="581" y="68" href="#P4"></use><use x="622" y="137" href="#P2"></use><use x="606" y="305" href="#P4"></use><use x="566" y="572" href="#P2"></use><use x="527" y="702" href="#P4"></use><use x="538" y="942" href="#P2"></use><use x="630" y="1049" href="#P5"></use><use x="550" y="1387" href="#P5"></use><use x="636" y="1517" href="#P2"></use><use x="539" y="1748" href="#P0"></use><use x="560" y="1835" href="#P4"></use><use x="497" y="1991" href="#P5"></use><use x="550" y="2269" href="#P3"></use><use x="486" y="2379" href="#P0"></use><use x="594" y="2678" href="#P3"></use><use x="620" y="2685" href="#P3"></use><use x="615" y="3005" href="#P0"></use><use x="516" y="3066" href="#P6"></use><use x="590" y="3276" href="#P3"></use><use x="659" y="3558" href="#P3"></use><use x="571" y="3682" href="#P2"></use><use x="544" y="3849" href="#P2"></use><use x="526" y="3974" href="#P6"></use><use x="577" y="4306" href="#P0"></use><use x="647" y="4376" href="#P3"></use><use x="504" y="4656" href="#P5"></use><use x="601" y="4844" href="#P4"></use><use x="548" y="5030" href="#P3"></use><use x="521" y="5189" href="#P5"></use><use x="737" y="-121" href="#P5"></use><use x="734" y="-9" href="#P0"></use><use x="808" y="143" href="#P2"></use><use x="836" y="306" href="#P2"></use><use x="689" y="548" href="#P3"></use><use x="756" y="752" href="#P6"></use><use x="777" y="850" href="#P2"></use><use x="669" y="1075" href="#P5"></use><use x="721" y="1257" href="#P0"></use><use x="724" y="1487" href="#P1"></use><use x="816" y="1699" href="#P1"></use><use x="672" y="1927" href="#P2"></use><use x="744" y="2048" href="#P2"></use><use x="827" y="2213" href="#P1"></use><use x="726" y="2356" href="#P1"></use><use x="834" y="2592" href="#P6"></use><use x="753" y="2697" href="#P1"></use><use x="696" y="2878" href="#P1"></use><use x="690" y="3223" href="#P3"></use><use x="767" y="3379" href="#P1"></use><use x="819" y="3588" href="#P3"></use><use x="751" y="3692" href="#P5"></use><use x="733" y="3895" href="#P5"></use><use x="844" y="4120" href="#P0"></use><use x="822" y="4209" href="#P5"></use><use x="807" y="4420" href="#P1"></use><use x="785" y="4659" href="#P5"></use><use x="833" y="4814" href="#P5"></use><use x="839" y="4924" href="#P5"></use><use x="672" y="5098" href="#P5"></use><use x="967" y="-85" href="#P4"></use><use x="922" y="53" href="#P0"></use><use x="930" y="274" href="#P3"></use><use x="923" y="465" href="#P1"></use><use x="892" y="536" href="#P0"></use><use x="883" y="682" href="#P4"></use><use x="984" y="1013" href="#P1"></use><use x="986" y="1082" href="#P2"></use><use x="917" y="1316" href="#P0"></use><use x="894" y="1539" href="#P6"></use><use x="977" y="1744" href="#P5"></use><use x="928" y="1834" href="#P5"></use><use x="1029" y="2043" href="#P3"></use><use x="898" y="2182" href="#P4"></use><use x="974" y="2342" href="#P5"></use><use x="953" y="2682" href="#P4"></use><use x="988" y="2807" href="#P4"></use><use x="958" y="3049" href="#P5"></use><use x="916" y="3095" href="#P6"></use><use x="941" y="3387" href="#P4"></use><use x="972" y="3465" href="#P0"></use><use x="857" y="3631" href="#P1"></use><use x="919" y="3848" href="#P5"></use><use x="881" y="3988" href="#P6"></use><use x="886" y="4330" href="#P0"></use><use x="981" y="4511" href="#P2"></use><use x="933" y="4645" href="#P5"></use><use x="902" y="4749" href="#P1"></use><use x="1004" y="4999" href="#P0"></use><use x="927" y="5192" href="#P4"></use><use x="1086" y="-193" href="#P4"></use><use x="1197" y="90" href="#P2"></use><use x="1054" y="257" href="#P1"></use><use x="1168" y="421" href="#P5"></use><use x="1204" y="649" href="#P1"></use><use x="1140" y="806" href="#P5"></use><use x="1159" y="916" href="#P4"></use><use x="1139" y="1215" href="#P6"></use><use x="1094" y="1399" href="#P3"></use><use x="1166" y="1550" href="#P4"></use><use x="1156" y="1601" href="#P5"></use><use x="1148" y="1886" href="#P6"></use><use x="1214" y="2126" href="#P5"></use><use x="1153" y="2209" href="#P4"></use><use x="1083" y="2459" href="#P4"></use><use x="1036" y="2605" href="#P2"></use><use x="1111" y="2766" href="#P0"></use><use x="1200" y="2911" href="#P0"></use><use x="1110" y="3073" href="#P6"></use><use x="1094" y="3364" href="#P5"></use><use x="1197" y="3464" href="#P4"></use><use x="1155" y="3730" href="#P1"></use><use x="1052" y="3793" href="#P3"></use><use x="1118" y="4119" href="#P5"></use><use x="1146" y="4273" href="#P2"></use><use x="1163" y="4352" href="#P1"></use><use x="1179" y="4535" href="#P4"></use><use x="1117" y="4843" href="#P0"></use><use x="1091" y="4952" href="#P6"></use><use x="1087" y="5170" href="#P3"></use><use x="1290" y="-150" href="#P6"></use><use x="1311" y="-3" href="#P3"></use><use x="1289" y="265" href="#P6"></use><use x="1221" y="385" href="#P1"></use><use x="1377" y="639" href="#P0"></use><use x="1351" y="731" href="#P1"></use><use x="1291" y="973" href="#P3"></use><use x="1291" y="1052" href="#P6"></use><use x="1354" y="1389" href="#P6"></use><use x="1242" y="1443" href="#P5"></use><use x="1396" y="1635" href="#P4"></use><use x="1260" y="1855" href="#P5"></use><use x="1374" y="2130" href="#P1"></use><use x="1304" y="2198" href="#P4"></use><use x="1267" y="2413" href="#P4"></use><use x="1363" y="2674" href="#P6"></use><use x="1388" y="2753" href="#P6"></use><use x="1359" y="2939" href="#P4"></use><use x="1357" y="3050" href="#P0"></use><use x="1378" y="3412" href="#P0"></use><use x="1328" y="3460" href="#P5"></use><use x="1255" y="3619" href="#P6"></use><use x="1232" y="3788" href="#P5"></use><use x="1386" y="4134" href="#P5"></use><use x="1394" y="4212" href="#P5"></use><use x="1364" y="4362" href="#P1"></use><use x="1346" y="4624" href="#P6"></use><use x="1305" y="4797" href="#P0"></use><use x="1400" y="5009" href="#P3"></use><use x="1348" y="5246" href="#P1"></use><use x="1495" y="-124" href="#P1"></use><use x="1528" y="46" href="#P6"></use><use x="1474" y="265" href="#P2"></use><use x="1516" y="383" href="#P1"></use><use x="1494" y="619" href="#P0"></use><use x="1422" y="676" href="#P2"></use><use x="1537" y="968" href="#P1"></use><use x="1404" y="1136" href="#P2"></use><use x="1434" y="1395" href="#P0"></use><use x="1582" y="1476" href="#P1"></use><use x="1412" y="1717" href="#P0"></use><use x="1512" y="1904" href="#P5"></use><use x="1402" y="2049" href="#P4"></use><use x="1543" y="2245" href="#P3"></use><use x="1473" y="2493" href="#P5"></use><use x="1571" y="2586" href="#P0"></use><use x="1466" y="2686" href="#P4"></use><use x="1576" y="3009" href="#P4"></use><use x="1555" y="3167" href="#P4"></use><use x="1490" y="3344" href="#P0"></use><use x="1560" y="3463" href="#P4"></use><use x="1459" y="3662" href="#P3"></use><use x="1555" y="3875" href="#P1"></use><use x="1475" y="4026" href="#P4"></use><use x="1454" y="4186" href="#P0"></use><use x="1469" y="4443" href="#P4"></use><use x="1476" y="4664" href="#P1"></use><use x="1484" y="4750" href="#P0"></use><use x="1524" y="5020" href="#P5"></use><use x="1450" y="5234" href="#P2"></use><use x="1594" y="-152" href="#P3"></use><use x="1760" y="-23" href="#P3"></use><use x="1606" y="160" href="#P0"></use><use x="1616" y="469" href="#P3"></use><use x="1746" y="596" href="#P0"></use><use x="1662" y="750" href="#P4"></use><use x="1735" y="982" href="#P0"></use><use x="1762" y="1111" href="#P0"></use><use x="1729" y="1366" href="#P0"></use><use x="1716" y="1529" href="#P5"></use><use x="1664" y="1680" href="#P0"></use><use x="1762" y="1837" href="#P5"></use><use x="1597" y="1981" href="#P4"></use><use x="1733" y="2236" href="#P5"></use><use x="1740" y="2337" href="#P4"></use><use x="1706" y="2575" href="#P1"></use><use x="1622" y="2751" href="#P0"></use><use x="1667" y="2930" href="#P5"></use><use x="1691" y="3114" href="#P4"></use><use x="1635" y="3335" href="#P3"></use><use x="1618" y="3497" href="#P2"></use><use x="1711" y="3610" href="#P5"></use><use x="1698" y="3810" href="#P6"></use><use x="1677" y="4088" href="#P6"></use><use x="1766" y="4302" href="#P2"></use><use x="1652" y="4448" href="#P6"></use><use x="1629" y="4634" href="#P6"></use><use x="1682" y="4743" href="#P4"></use><use x="1752" y="4910" href="#P1"></use><use x="1663" y="5108" href="#P2"></use><use x="1928" y="-162" href="#P0"></use><use x="1822" y="-37" href="#P1"></use><use x="1802" y="173" href="#P0"></use><use x="1816" y="419" href="#P2"></use><use x="1875" y="641" href="#P6"></use><use x="1851" y="691" href="#P1"></use><use x="1853" y="938" href="#P6"></use><use x="1928" y="1156" href="#P5"></use><use x="1891" y="1288" href="#P2"></use><use x="1779" y="1486" href="#P5"></use><use x="1893" y="1715" href="#P6"></use><use x="1769" y="1850" href="#P6"></use><use x="1843" y="2061" href="#P4"></use><use x="1919" y="2225" href="#P4"></use><use x="1876" y="2363" href="#P1"></use><use x="1857" y="2583" href="#P5"></use><use x="1798" y="2711" href="#P1"></use><use x="1887" y="2903" href="#P6"></use><use x="1854" y="3074" href="#P2"></use><use x="1920" y="3236" href="#P2"></use><use x="1842" y="3571" href="#P2"></use><use x="1835" y="3764" href="#P0"></use><use x="1803" y="3887" href="#P6"></use><use x="1915" y="4118" href="#P3"></use><use x="1861" y="4235" href="#P1"></use><use x="1869" y="4513" href="#P4"></use><use x="1792" y="4532" href="#P3"></use><use x="1934" y="4706" href="#P5"></use><use x="1944" y="4934" href="#P5"></use><use x="1869" y="5195" href="#P1"></use><use x="1950" y="-214" href="#P5"></use><use x="2054" y="16" href="#P1"></use><use x="2044" y="247" href="#P4"></use><use x="2038" y="370" href="#P4"></use><use x="1958" y="591" href="#P5"></use><use x="1999" y="672" href="#P5"></use><use x="2061" y="862" href="#P0"></use><use x="1966" y="1059" href="#P1"></use><use x="2118" y="1228" href="#P0"></use><use x="1980" y="1537" href="#P2"></use><use x="1970" y="1633" href="#P3"></use><use x="2029" y="1799" href="#P2"></use><use x="1970" y="2093" href="#P2"></use><use x="2078" y="2259" href="#P4"></use><use x="2028" y="2456" href="#P6"></use><use x="2072" y="2625" href="#P0"></use><use x="2111" y="2684" href="#P3"></use><use x="2023" y="2958" href="#P6"></use><use x="2122" y="3103" href="#P0"></use><use x="1961" y="3400" href="#P5"></use><use x="2105" y="3496" href="#P1"></use><use x="1972" y="3721" href="#P0"></use><use x="2103" y="3840" href="#P4"></use><use x="2123" y="4107" href="#P3"></use><use x="1973" y="4217" href="#P1"></use><use x="2059" y="4409" href="#P1"></use><use x="2132" y="4635" href="#P1"></use><use x="2090" y="4731" href="#P4"></use><use x="1971" y="4972" href="#P1"></use><use x="2121" y="5140" href="#P1"></use><use x="2202" y="-191" href="#P1"></use><use x="2292" y="52" href="#P2"></use><use x="2269" y="203" href="#P3"></use><use x="2290" y="434" href="#P4"></use><use x="2182" y="533" href="#P6"></use><use x="2226" y="790" href="#P6"></use><use x="2233" y="1022" href="#P3"></use><use x="2163" y="1217" href="#P4"></use><use x="2215" y="1358" href="#P0"></use><use x="2287" y="1500" href="#P2"></use><use x="2169" y="1752" href="#P6"></use><use x="2138" y="1767" href="#P4"></use><use x="2156" y="2007" href="#P6"></use><use x="2172" y="2229" href="#P6"></use><use x="2285" y="2436" href="#P1"></use><use x="2273" y="2603" href="#P4"></use><use x="2181" y="2807" href="#P6"></use><use x="2299" y="2887" href="#P6"></use><use x="2213" y="3210" href="#P3"></use><use x="2211" y="3380" href="#P4"></use><use x="2255" y="3532" href="#P6"></use><use x="2142" y="3661" href="#P5"></use><use x="2255" y="3927" href="#P4"></use><use x="2237" y="4073" href="#P5"></use><use x="2157" y="4158" href="#P1"></use><use x="2177" y="4453" href="#P1"></use><use x="2161" y="4534" href="#P0"></use><use x="2262" y="4879" href="#P0"></use><use x="2143" y="5065" href="#P6"></use><use x="2241" y="5160" href="#P6"></use><use x="2492" y="-185" href="#P5"></use><use x="2494" y="44" href="#P4"></use><use x="2422" y="188" href="#P3"></use><use x="2386" y="400" href="#P1"></use><use x="2329" y="533" href="#P4"></use><use x="2429" y="820" href="#P5"></use><use x="2330" y="947" href="#P3"></use><use x="2369" y="1041" href="#P5"></use><use x="2444" y="1235" href="#P4"></use><use x="2377" y="1525" href="#P3"></use><use x="2331" y="1601" href="#P4"></use><use x="2376" y="1945" href="#P5"></use><use x="2409" y="2124" href="#P3"></use><use x="2365" y="2310" href="#P4"></use><use x="2426" y="2442" href="#P5"></use><use x="2431" y="2589" href="#P5"></use><use x="2423" y="2715" href="#P1"></use><use x="2347" y="3022" href="#P1"></use><use x="2354" y="3150" href="#P6"></use><use x="2500" y="3315" href="#P3"></use><use x="2473" y="3554" href="#P5"></use><use x="2377" y="3748" href="#P6"></use><use x="2332" y="3892" href="#P5"></use><use x="2411" y="4071" href="#P0"></use><use x="2409" y="4239" href="#P2"></use><use x="2373" y="4452" href="#P4"></use><use x="2468" y="4623" href="#P5"></use><use x="2458" y="4874" href="#P4"></use><use x="2437" y="4995" href="#P4"></use><use x="2362" y="5066" href="#P1"></use><use x="2653" y="-123" href="#P5"></use><use x="2567" y="103" href="#P2"></use><use x="2655" y="213" href="#P6"></use><use x="2661" y="411" href="#P0"></use><use x="2580" y="646" href="#P2"></use><use x="2535" y="768" href="#P6"></use><use x="2503" y="990" href="#P0"></use><use x="2517" y="1069" href="#P6"></use><use x="2588" y="1343" href="#P1"></use><use x="2582" y="1483" href="#P4"></use><use x="2684" y="1764" href="#P1"></use><use x="2504" y="1922" href="#P5"></use><use x="2633" y="2131" href="#P4"></use><use x="2632" y="2207" href="#P1"></use><use x="2664" y="2369" href="#P3"></use><use x="2674" y="2680" href="#P6"></use><use x="2646" y="2685" href="#P1"></use><use x="2658" y="2902" href="#P5"></use><use x="2643" y="3095" href="#P0"></use><use x="2571" y="3273" href="#P6"></use><use x="2606" y="3505" href="#P3"></use><use x="2546" y="3662" href="#P2"></use><use x="2502" y="3891" href="#P4"></use><use x="2527" y="4036" href="#P2"></use><use x="2519" y="4299" href="#P0"></use><use x="2589" y="4385" href="#P0"></use><use x="2669" y="4527" href="#P3"></use><use x="2505" y="4790" href="#P3"></use><use x="2549" y="4966" href="#P5"></use><use x="2546" y="5157" href="#P3"></use><use x="2862" y="-244" href="#P1"></use><use x="2768" y="-47" href="#P4"></use><use x="2753" y="260" href="#P5"></use><use x="2844" y="447" href="#P4"></use><use x="2848" y="612" href="#P4"></use><use x="2746" y="849" href="#P0"></use><use x="2707" y="865" href="#P4"></use><use x="2710" y="1131" href="#P3"></use><use x="2705" y="1398" href="#P1"></use><use x="2722" y="1485" href="#P4"></use><use x="2706" y="1658" href="#P1"></use><use x="2816" y="1847" href="#P3"></use><use x="2828" y="2013" href="#P0"></use><use x="2717" y="2240" href="#P5"></use><use x="2804" y="2372" href="#P6"></use><use x="2832" y="2545" href="#P4"></use><use x="2752" y="2724" href="#P4"></use><use x="2850" y="3027" href="#P1"></use><use x="2794" y="3153" href="#P5"></use><use x="2772" y="3355" href="#P0"></use><use x="2734" y="3577" href="#P3"></use><use x="2748" y="3681" href="#P6"></use><use x="2789" y="3921" href="#P4"></use><use x="2729" y="4131" href="#P2"></use><use x="2830" y="4292" href="#P3"></use><use x="2696" y="4517" href="#P3"></use><use x="2795" y="4608" href="#P6"></use><use x="2849" y="4701" href="#P4"></use><use x="2720" y="4910" href="#P6"></use><use x="2812" y="5236" href="#P0"></use><use x="2996" y="-198" href="#P5"></use><use x="2925" y="7" href="#P2"></use><use x="2939" y="256" href="#P5"></use><use x="2908" y="456" href="#P6"></use><use x="2994" y="563" href="#P1"></use><use x="2949" y="719" href="#P1"></use><use x="2940" y="866" href="#P3"></use><use x="2875" y="1155" href="#P0"></use><use x="2917" y="1238" href="#P3"></use><use x="2882" y="1575" href="#P6"></use><use x="2925" y="1689" href="#P1"></use><use x="3027" y="1869" href="#P5"></use><use x="2918" y="2016" href="#P1"></use><use x="2958" y="2161" href="#P6"></use><use x="3003" y="2382" href="#P4"></use><use x="2960" y="2640" href="#P3"></use><use x="3039" y="2809" href="#P4"></use><use x="3046" y="2926" href="#P3"></use><use x="2904" y="3196" href="#P2"></use><use x="2988" y="3268" href="#P6"></use><use x="2915" y="3581" href="#P3"></use><use x="2930" y="3760" href="#P5"></use><use x="3040" y="3823" href="#P0"></use><use x="2992" y="4142" href="#P5"></use><use x="3031" y="4167" href="#P2"></use><use x="2890" y="4458" href="#P1"></use><use x="2960" y="4535" href="#P0"></use><use x="2966" y="4874" href="#P5"></use><use x="2900" y="4935" href="#P4"></use><use x="2953" y="5128" href="#P6"></use><use x="3124" y="-118" href="#P6"></use><use x="3162" y="-21" href="#P4"></use><use x="3221" y="278" href="#P1"></use><use x="3189" y="442" href="#P5"></use><use x="3122" y="569" href="#P1"></use><use x="3070" y="802" href="#P5"></use><use x="3180" y="993" href="#P6"></use><use x="3145" y="1147" href="#P3"></use><use x="3186" y="1223" href="#P3"></use><use x="3150" y="1560" href="#P1"></use><use x="3208" y="1589" href="#P5"></use><use x="3152" y="1860" href="#P6"></use><use x="3132" y="2090" href="#P6"></use><use x="3066" y="2214" href="#P5"></use><use x="3224" y="2352" href="#P0"></use><use x="3173" y="2670" href="#P3"></use><use x="3217" y="2785" href="#P2"></use><use x="3173" y="2897" href="#P2"></use><use x="3148" y="3058" href="#P0"></use><use x="3191" y="3410" href="#P3"></use><use x="3095" y="3485" href="#P3"></use><use x="3231" y="3611" href="#P2"></use><use x="3229" y="3895" href="#P1"></use><use x="3138" y="3968" href="#P2"></use><use x="3127" y="4253" href="#P3"></use><use x="3220" y="4507" href="#P4"></use><use x="3141" y="4652" href="#P6"></use><use x="3227" y="4859" href="#P4"></use><use x="3142" y="4896" href="#P6"></use><use x="3215" y="5159" href="#P6"></use><use x="3331" y="-184" href="#P4"></use><use x="3298" y="20" href="#P2"></use><use x="3330" y="243" href="#P2"></use><use x="3253" y="434" href="#P6"></use><use x="3340" y="646" href="#P4"></use><use x="3407" y="685" href="#P2"></use><use x="3283" y="931" href="#P3"></use><use x="3272" y="1079" href="#P0"></use><use x="3250" y="1360" href="#P2"></use><use x="3398" y="1461" href="#P5"></use><use x="3349" y="1655" href="#P1"></use><use x="3362" y="1866" href="#P0"></use><use x="3308" y="1965" href="#P0"></use><use x="3350" y="2152" href="#P6"></use><use x="3285" y="2425" href="#P4"></use><use x="3282" y="2574" href="#P6"></use><use x="3336" y="2741" href="#P2"></use><use x="3260" y="2882" href="#P1"></use><use x="3334" y="3127" href="#P3"></use><use x="3327" y="3290" href="#P1"></use><use x="3380" y="3534" href="#P6"></use><use x="3233" y="3631" href="#P1"></use><use x="3335" y="3886" href="#P2"></use><use x="3391" y="3989" href="#P3"></use><use x="3296" y="4151" href="#P0"></use><use x="3304" y="4411" href="#P6"></use><use x="3254" y="4682" href="#P1"></use><use x="3390" y="4754" href="#P1"></use><use x="3399" y="4968" href="#P4"></use><use x="3234" y="5126" href="#P0"></use><use x="3443" y="-138" href="#P6"></use><use x="3566" y="-54" href="#P5"></use><use x="3469" y="158" href="#P0"></use><use x="3555" y="367" href="#P6"></use><use x="3577" y="566" href="#P1"></use><use x="3581" y="735" href="#P3"></use><use x="3474" y="982" href="#P5"></use><use x="3587" y="1195" href="#P0"></use><use x="3480" y="1347" href="#P4"></use><use x="3559" y="1430" href="#P5"></use><use x="3463" y="1592" href="#P2"></use><use x="3556" y="1789" href="#P6"></use><use x="3487" y="2004" href="#P3"></use><use x="3422" y="2295" href="#P2"></use><use x="3595" y="2500" href="#P3"></use><use x="3464" y="2609" href="#P6"></use><use x="3430" y="2775" href="#P1"></use><use x="3467" y="2887" href="#P4"></use><use x="3441" y="3066" href="#P3"></use><use x="3447" y="3258" href="#P5"></use><use x="3579" y="3440" href="#P5"></use><use x="3459" y="3775" href="#P4"></use><use x="3542" y="3892" href="#P1"></use><use x="3422" y="4005" href="#P6"></use><use x="3521" y="4333" href="#P4"></use><use x="3470" y="4498" href="#P5"></use><use x="3459" y="4580" href="#P1"></use><use x="3419" y="4745" href="#P6"></use><use x="3480" y="4891" href="#P2"></use><use x="3449" y="5245" href="#P1"></use><use x="3641" y="-103" href="#P0"></use><use x="3777" y="25" href="#P4"></use><use x="3646" y="173" href="#P4"></use><use x="3769" y="474" href="#P0"></use><use x="3665" y="560" href="#P0"></use><use x="3696" y="830" href="#P0"></use><use x="3742" y="946" href="#P1"></use><use x="3664" y="1039" href="#P5"></use><use x="3718" y="1220" href="#P4"></use><use x="3689" y="1409" href="#P4"></use><use x="3783" y="1637" href="#P3"></use><use x="3662" y="1795" href="#P5"></use><use x="3761" y="2036" href="#P1"></use><use x="3608" y="2282" href="#P3"></use><use x="3656" y="2492" href="#P1"></use><use x="3732" y="2652" href="#P4"></use><use x="3654" y="2821" href="#P5"></use><use x="3628" y="2884" href="#P6"></use><use x="3731" y="3140" href="#P6"></use><use x="3777" y="3322" href="#P1"></use><use x="3722" y="3525" href="#P5"></use><use x="3657" y="3689" href="#P0"></use><use x="3628" y="3797" href="#P3"></use><use x="3604" y="3972" href="#P2"></use><use x="3738" y="4272" href="#P3"></use><use x="3778" y="4513" href="#P5"></use><use x="3730" y="4587" href="#P3"></use><use x="3782" y="4782" href="#P3"></use><use x="3664" y="4899" href="#P5"></use><use x="3756" y="5096" href="#P3"></use><use x="3921" y="-75" href="#P3"></use><use x="3869" y="62" href="#P1"></use><use x="3820" y="117" href="#P6"></use><use x="3893" y="340" href="#P6"></use><use x="3802" y="620" href="#P0"></use><use x="3878" y="848" href="#P5"></use><use x="3910" y="943" href="#P0"></use><use x="3909" y="1148" href="#P6"></use><use x="3798" y="1282" href="#P1"></use><use x="3889" y="1403" href="#P6"></use><use x="3841" y="1611" href="#P1"></use><use x="3951" y="1772" href="#P3"></use><use x="3899" y="1982" href="#P4"></use><use x="3897" y="2271" href="#P4"></use><use x="3789" y="2491" href="#P0"></use><use x="3909" y="2574" href="#P6"></use><use x="3874" y="2836" href="#P6"></use><use x="3918" y="3032" href="#P3"></use><use x="3800" y="3064" href="#P2"></use><use x="3869" y="3402" href="#P4"></use><use x="3784" y="3473" href="#P3"></use><use x="3816" y="3637" href="#P0"></use><use x="3788" y="3966" href="#P4"></use><use x="3790" y="4062" href="#P1"></use><use x="3829" y="4201" href="#P6"></use><use x="3837" y="4451" href="#P5"></use><use x="3863" y="4596" href="#P2"></use><use x="3923" y="4763" href="#P3"></use><use x="3879" y="4917" href="#P5"></use><use x="3800" y="5108" href="#P4"></use><use x="4007" y="-127" href="#P2"></use><use x="4066" y="2" href="#P6"></use><use x="4149" y="160" href="#P1"></use><use x="4131" y="390" href="#P4"></use><use x="4084" y="504" href="#P4"></use><use x="3988" y="743" href="#P4"></use><use x="3971" y="1023" href="#P6"></use><use x="4076" y="1036" href="#P5"></use><use x="4117" y="1232" href="#P5"></use><use x="4148" y="1477" href="#P2"></use><use x="4054" y="1728" href="#P2"></use><use x="4077" y="1892" href="#P0"></use><use x="3998" y="2094" href="#P1"></use><use x="4040" y="2293" href="#P4"></use><use x="4018" y="2346" href="#P2"></use><use x="4067" y="2567" href="#P1"></use><use x="4032" y="2834" href="#P6"></use><use x="4107" y="2921" href="#P4"></use><use x="4040" y="3230" href="#P3"></use><use x="4043" y="3320" href="#P4"></use><use x="3984" y="3494" href="#P2"></use><use x="4052" y="3615" href="#P5"></use><use x="4021" y="3964" href="#P3"></use><use x="4136" y="4101" href="#P6"></use><use x="4001" y="4157" href="#P1"></use><use x="3983" y="4364" href="#P1"></use><use x="3972" y="4688" href="#P1"></use><use x="4124" y="4816" href="#P1"></use><use x="4035" y="4911" href="#P6"></use><use x="4047" y="5174" href="#P2"></use><use x="4193" y="-110" href="#P0"></use><use x="4162" y="98" href="#P4"></use><use x="4180" y="187" href="#P3"></use><use x="4273" y="413" href="#P0"></use><use x="4327" y="630" href="#P5"></use><use x="4230" y="684" href="#P6"></use><use x="4315" y="972" href="#P0"></use><use x="4178" y="1189" href="#P2"></use><use x="4159" y="1287" href="#P5"></use><use x="4192" y="1487" href="#P0"></use><use x="4206" y="1586" href="#P4"></use><use x="4236" y="1902" href="#P3"></use><use x="4206" y="2119" href="#P6"></use><use x="4246" y="2205" href="#P3"></use><use x="4256" y="2466" href="#P1"></use><use x="4310" y="2565" href="#P6"></use><use x="4221" y="2865" href="#P3"></use><use x="4297" y="2867" href="#P1"></use><use x="4205" y="3192" href="#P6"></use><use x="4254" y="3327" href="#P2"></use><use x="4326" y="3418" href="#P5"></use><use x="4255" y="3780" href="#P3"></use><use x="4211" y="3819" href="#P1"></use><use x="4209" y="4118" href="#P3"></use><use x="4284" y="4170" href="#P3"></use><use x="4228" y="4339" href="#P0"></use><use x="4156" y="4652" href="#P0"></use><use x="4299" y="4779" href="#P4"></use><use x="4150" y="5031" href="#P0"></use><use x="4156" y="5110" href="#P3"></use><use x="4418" y="-69" href="#P3"></use><use x="4353" y="-15" href="#P2"></use><use x="4495" y="210" href="#P1"></use><use x="4458" y="406" href="#P1"></use><use x="4412" y="576" href="#P0"></use><use x="4443" y="806" href="#P0"></use><use x="4422" y="982" href="#P0"></use><use x="4444" y="1126" href="#P5"></use><use x="4338" y="1353" href="#P5"></use><use x="4458" y="1576" href="#P1"></use><use x="4437" y="1631" href="#P3"></use><use x="4407" y="1833" href="#P5"></use><use x="4397" y="2030" href="#P1"></use><use x="4416" y="2199" href="#P5"></use><use x="4358" y="2474" href="#P3"></use><use x="4392" y="2534" href="#P4"></use><use x="4466" y="2765" href="#P1"></use><use x="4515" y="3040" href="#P6"></use><use x="4491" y="3228" href="#P2"></use><use x="4429" y="3383" href="#P6"></use><use x="4426" y="3445" href="#P1"></use><use x="4499" y="3743" href="#P6"></use><use x="4360" y="3832" href="#P2"></use><use x="4423" y="4062" href="#P3"></use><use x="4413" y="4266" href="#P3"></use><use x="4368" y="4377" href="#P0"></use><use x="4338" y="4571" href="#P2"></use><use x="4445" y="4780" href="#P2"></use><use x="4447" y="5006" href="#P6"></use><use x="4438" y="5104" href="#P3"></use><use x="4668" y="-68" href="#P5"></use><use x="4585" y="32" href="#P0"></use><use x="4624" y="228" href="#P3"></use><use x="4659" y="408" href="#P0"></use><use x="4565" y="534" href="#P2"></use><use x="4682" y="843" href="#P2"></use><use x="4598" y="985" href="#P0"></use><use x="4564" y="1189" href="#P3"></use><use x="4633" y="1374" href="#P3"></use><use x="4628" y="1465" href="#P4"></use><use x="4681" y="1659" href="#P0"></use><use x="4640" y="1859" href="#P4"></use><use x="4546" y="1960" href="#P0"></use><use x="4672" y="2317" href="#P0"></use><use x="4642" y="2419" href="#P0"></use><use x="4671" y="2638" href="#P5"></use><use x="4676" y="2769" href="#P4"></use><use x="4684" y="2942" href="#P2"></use><use x="4557" y="3104" href="#P1"></use><use x="4672" y="3352" href="#P2"></use><use x="4551" y="3585" href="#P3"></use><use x="4643" y="3654" href="#P1"></use><use x="4637" y="3792" href="#P1"></use><use x="4686" y="4133" href="#P5"></use><use x="4663" y="4331" href="#P4"></use><use x="4533" y="4468" href="#P0"></use><use x="4547" y="4552" href="#P6"></use><use x="4685" y="4746" href="#P2"></use><use x="4674" y="4900" href="#P6"></use><use x="4542" y="5071" href="#P5"></use><use x="4809" y="-69" href="#P2"></use><use x="4808" y="-1" href="#P1"></use><use x="4775" y="188" href="#P2"></use><use x="4720" y="304" href="#P0"></use><use x="4883" y="536" href="#P3"></use><use x="4776" y="688" href="#P2"></use><use x="4764" y="925" href="#P5"></use><use x="4881" y="1138" href="#P5"></use><use x="4866" y="1346" href="#P5"></use><use x="4827" y="1530" href="#P3"></use><use x="4841" y="1709" href="#P4"></use><use x="4737" y="1812" href="#P0"></use><use x="4747" y="2058" href="#P0"></use><use x="4707" y="2172" href="#P6"></use><use x="4798" y="2444" href="#P0"></use><use x="4776" y="2609" href="#P3"></use><use x="4757" y="2692" href="#P1"></use><use x="4867" y="3045" href="#P2"></use><use x="4703" y="3089" href="#P5"></use><use x="4794" y="3296" href="#P6"></use><use x="4778" y="3418" href="#P4"></use><use x="4782" y="3764" href="#P4"></use><use x="4843" y="3835" href="#P5"></use><use x="4708" y="4096" href="#P5"></use><use x="4796" y="4263" href="#P1"></use><use x="4863" y="4431" href="#P5"></use><use x="4834" y="4661" href="#P2"></use><use x="4769" y="4722" href="#P4"></use><use x="4797" y="4940" href="#P4"></use><use x="4714" y="5220" href="#P2"></use><use x="4888" y="-76" href="#P3"></use><use x="4889" y="101" href="#P1"></use><use x="4896" y="282" href="#P3"></use><use x="5058" y="343" href="#P1"></use><use x="4901" y="581" href="#P3"></use><use x="5037" y="826" href="#P1"></use><use x="4967" y="891" href="#P6"></use><use x="4963" y="1042" href="#P5"></use><use x="5054" y="1297" href="#P2"></use><use x="4922" y="1580" href="#P3"></use><use x="4979" y="1760" href="#P0"></use><use x="4992" y="1808" href="#P0"></use><use x="5006" y="2006" href="#P6"></use><use x="4992" y="2138" href="#P6"></use><use x="4973" y="2366" href="#P5"></use><use x="4972" y="2529" href="#P1"></use><use x="4898" y="2737" href="#P5"></use><use x="4930" y="2956" href="#P0"></use><use x="5029" y="3232" href="#P6"></use><use x="5059" y="3308" href="#P3"></use><use x="4912" y="3591" href="#P2"></use><use x="4939" y="3624" href="#P5"></use><use x="4938" y="3828" href="#P4"></use><use x="5044" y="3998" href="#P4"></use><use x="5014" y="4270" href="#P6"></use><use x="4959" y="4479" href="#P3"></use><use x="4990" y="4667" href="#P3"></use><use x="5010" y="4726" href="#P3"></use><use x="4969" y="4983" href="#P0"></use><use x="4889" y="5146" href="#P1"></use><use x="5096" y="-213" href="#P0"></use><use x="5157" y="-28" href="#P2"></use><use x="5077" y="206" href="#P5"></use><use x="5141" y="325" href="#P1"></use><use x="5078" y="659" href="#P1"></use><use x="5085" y="726" href="#P4"></use><use x="5185" y="903" href="#P4"></use><use x="5080" y="1103" href="#P4"></use><use x="5142" y="1379" href="#P0"></use><use x="5185" y="1557" href="#P6"></use><use x="5123" y="1711" href="#P1"></use><use x="5218" y="1934" href="#P2"></use><use x="5127" y="1988" href="#P6"></use><use x="5239" y="2180" href="#P3"></use><use x="5122" y="2466" href="#P6"></use><use x="5217" y="2682" href="#P4"></use><use x="5081" y="2761" href="#P2"></use><use x="5228" y="3003" href="#P0"></use><use x="5132" y="3118" href="#P3"></use><use x="5194" y="3244" href="#P3"></use><use x="5166" y="3443" href="#P3"></use><use x="5081" y="3757" href="#P1"></use><use x="5221" y="3913" href="#P1"></use><use x="5209" y="3998" href="#P0"></use><use x="5111" y="4281" href="#P6"></use><use x="5190" y="4369" href="#P0"></use><use x="5185" y="4655" href="#P1"></use><use x="5218" y="4871" href="#P3"></use><use x="5111" y="4908" href="#P2"></use><use x="5226" y="5122" href="#P0"></use></g></svg>